<svg xmlns="http://www.w3.org/2000/svg" viewBox="0 0 757.3 733.35"><defs><style>.cls-1{fill:#fff;}</style></defs><g id="Capa_2" data-name="Capa 2"><g id="Capa_1-2" data-name="Capa 1"><path class="cls-1" d="M729.66,463.52a5.37,5.37,0,0,1-5.11-3.64,155.9,155.9,0,0,0-8-19.28,5.39,5.39,0,0,1,1-6.22,27.67,27.67,0,0,0,0-39.09l-26.54-26.55a27.7,27.7,0,0,0-39.1,0l0,.05a5.39,5.39,0,0,1-6.17,1,156.54,156.54,0,0,0-19.28-8,5.37,5.37,0,0,1-3.64-5.11A27.67,27.67,0,0,0,595.18,329H557.64A27.67,27.67,0,0,0,530,356.68a5.38,5.38,0,0,1-3.64,5.11,155.9,155.9,0,0,0-19.28,8,5.39,5.39,0,0,1-6.21-1l-.1-.09a27.68,27.68,0,0,0-39,.08l-26.55,26.55a27.69,27.69,0,0,0,0,39.1,5.39,5.39,0,0,1,1,6.21,155.9,155.9,0,0,0-8,19.28,5.38,5.38,0,0,1-5.12,3.64,27.67,27.67,0,0,0-27.64,27.64V528.7a27.67,27.67,0,0,0,27.64,27.64,5.38,5.38,0,0,1,5.12,3.64,155.9,155.9,0,0,0,8,19.28,5.41,5.41,0,0,1-1,6.22,27.69,27.69,0,0,0,0,39.09l26.55,26.55a27.69,27.69,0,0,0,39,.09.47.47,0,0,1,.1-.1,5.39,5.39,0,0,1,6.21-1,155.9,155.9,0,0,0,19.28,8,5.38,5.38,0,0,1,3.64,5.11,27.67,27.67,0,0,0,27.64,27.64h37.54a27.67,27.67,0,0,0,27.64-27.64,5.37,5.37,0,0,1,3.64-5.11,156.54,156.54,0,0,0,19.28-8,5.39,5.39,0,0,1,6.17,1l0,0a27.7,27.7,0,0,0,39.1,0l26.54-26.55a27.68,27.68,0,0,0,0-39.1,5.38,5.38,0,0,1-1-6.21,157.46,157.46,0,0,0,8-19.28,5.37,5.37,0,0,1,5.11-3.64A27.67,27.67,0,0,0,757.3,528.7V491.16a27.67,27.67,0,0,0-27.64-27.64Zm5.42,65.18a5.43,5.43,0,0,1-5.42,5.43,27.59,27.59,0,0,0-26.17,18.74,132.35,132.35,0,0,1-6.84,16.52,27.59,27.59,0,0,0,5.23,31.8,5.44,5.44,0,0,1,0,7.67l-26.54,26.55a5.44,5.44,0,0,1-7.63,0l-.05-.05a27.61,27.61,0,0,0-31.79-5.23A133.67,133.67,0,0,1,619.35,637a27.58,27.58,0,0,0-18.75,26.17,5.42,5.42,0,0,1-5.42,5.42H557.64a5.42,5.42,0,0,1-5.42-5.42A27.59,27.59,0,0,0,533.47,637,132.4,132.4,0,0,1,517,630.17a27.6,27.6,0,0,0-31.71,5.15l-.09.09a5.44,5.44,0,0,1-7.67,0l-26.54-26.55a5.42,5.42,0,0,1,0-7.67,27.61,27.61,0,0,0,5.23-31.79,133.17,133.17,0,0,1-6.85-16.53,27.58,27.58,0,0,0-26.17-18.74,5.43,5.43,0,0,1-5.42-5.43V491.16a5.42,5.42,0,0,1,5.42-5.42A27.59,27.59,0,0,0,449.32,467a133,133,0,0,1,6.85-16.52,27.62,27.62,0,0,0-5.23-31.8,5.42,5.42,0,0,1,0-7.67l26.54-26.54a5.44,5.44,0,0,1,7.67,0l.08.08A27.6,27.6,0,0,0,517,389.69a133.93,133.93,0,0,1,16.52-6.85,27.58,27.58,0,0,0,18.75-26.16,5.43,5.43,0,0,1,5.42-5.43h37.54a5.43,5.43,0,0,1,5.42,5.43,27.58,27.58,0,0,0,18.75,26.16,135.23,135.23,0,0,1,16.52,6.85,27.59,27.59,0,0,0,31.79-5.23l.05,0a5.41,5.41,0,0,1,7.62,0L701.88,411a5.44,5.44,0,0,1,0,7.68,27.59,27.59,0,0,0-5.22,31.79A133,133,0,0,1,703.49,467a27.6,27.6,0,0,0,26.17,18.75,5.42,5.42,0,0,1,5.42,5.42Z"/><path class="cls-1" d="M576.41,425.82a84.12,84.12,0,1,0,84.11,84.11A84.21,84.21,0,0,0,576.41,425.82Zm0,146a61.9,61.9,0,1,1,61.89-61.9A62,62,0,0,1,576.41,571.83Z"/><path class="cls-1" d="M421.27,661.31l-78,45.05a35.67,35.67,0,0,1-6.79,3V373.09L627.68,205a35.56,35.56,0,0,1,.79,7.38V325.57a11.11,11.11,0,1,0,22.22,0V212.33a58.34,58.34,0,0,0-29-50.24L354.35,7.75a58.19,58.19,0,0,0-58,0L29,162.09A58.34,58.34,0,0,0,0,212.33V521a58.18,58.18,0,0,0,29,50.25L296.33,725.6a58.19,58.19,0,0,0,58,0l78-45.05a11.11,11.11,0,1,0-11.11-19.24Zm-107,48.06a36,36,0,0,1-6.79-3L40.12,552a35.92,35.92,0,0,1-17.9-31V212.33A35.56,35.56,0,0,1,23,205L314.23,373.09ZM34.12,185.7a35.33,35.33,0,0,1,6-4.37L307.44,27a35.92,35.92,0,0,1,35.8,0L610.57,181.33a35.38,35.38,0,0,1,6,4.38L325.34,353.85Z"/></g></g></svg>