<svg xmlns="http://www.w3.org/2000/svg" viewBox="0 0 636.29 734.35"><defs><style>.cls-1{fill:#fff;}</style></defs><g id="Capa_2" data-name="Capa 2"><g id="Capa_1-2" data-name="Capa 1"><path class="cls-1" d="M136,134.39V59.22a35.58,35.58,0,0,1,35.54-35.53h37.66l9.94,49.7a11.84,11.84,0,0,0,11.62,9.52H396.57a11.83,11.83,0,0,0,11.61-9.52l9.94-49.7h37.67a35.57,35.57,0,0,1,35.53,35.53v86.53c7.91.3,15.78,1.12,23.69,1.38V59.22A59.29,59.29,0,0,0,455.79,0H171.53A59.29,59.29,0,0,0,112.3,59.22v77.66A58.33,58.33,0,0,1,136,134.39ZM394,23.69l-7.1,35.53H240.46l-7.11-35.53Z"/><path class="cls-1" d="M491.32,432.91V675.12a35.57,35.57,0,0,1-35.53,35.54H171.53A35.58,35.58,0,0,1,136,675.12V441.52a201.09,201.09,0,0,0-23.69,4.28V675.12a59.3,59.3,0,0,0,59.23,59.23H455.79A59.29,59.29,0,0,0,515,675.12V433.67C507.1,433.6,499.2,433.41,491.32,432.91Z"/><path class="cls-1" d="M242.59,663.28H171.53a11.85,11.85,0,1,0,0,23.69h71.06a11.85,11.85,0,1,0,0-23.69Z"/><path class="cls-1" d="M290,663.28H278.12a11.85,11.85,0,0,0,0,23.69H290a11.85,11.85,0,0,0,0-23.69Z"/><path class="cls-1" d="M127.17,317.1A29.18,29.18,0,1,0,98,287.93,29.2,29.2,0,0,0,127.17,317.1Zm0-38.9a9.73,9.73,0,1,1-9.72,9.73A9.73,9.73,0,0,1,127.17,278.2Z"/><path class="cls-1" d="M166.08,356a29.21,29.21,0,0,0,29.17-29.18V249a29.21,29.21,0,0,0-29.17-29.18H88.27A29.21,29.21,0,0,0,59.09,249v77.8A29.21,29.21,0,0,0,88.27,356ZM78.55,326.83V249a9.73,9.73,0,0,1,9.72-9.73h77.81A9.73,9.73,0,0,1,175.8,249v77.8a9.74,9.74,0,0,1-9.72,9.73H88.27A9.74,9.74,0,0,1,78.55,326.83Z"/><path class="cls-1" d="M550,272.83l-68.19-39.39c-8.82-5.19-20.32,1.56-20.24,11.68v78.79c-.09,10.1,11.49,16.84,20.24,11.68L550,296.2C558.85,291.2,558.82,277.8,550,272.83Zm-69,40.75V255.45l50.32,29.06Z"/><path class="cls-1" d="M314.6,356c-45.2,1.18-82.78,37.44-85.56,82.55a87.65,87.65,0,0,0,4.43,33.63l-10.36,29.46a14.91,14.91,0,0,0,19,19l20.54-7.22a88.25,88.25,0,0,0,56.74,18.69c47.08-1.27,85.51-40.64,85.66-87.76A88.09,88.09,0,0,0,314.6,356Zm4.27,156.69a68.86,68.86,0,0,1-44.35-14.68,18.83,18.83,0,0,0-18-3.05l-12,4.21,7.29-20.76a18.75,18.75,0,0,0,.08-12.22,68.4,68.4,0,0,1-3.52-26.44c2.17-35.14,31.45-63.38,66.66-64.31a68.66,68.66,0,0,1,70.5,68.86C385.49,481.06,355.55,511.73,318.87,512.73Z"/><path class="cls-1" d="M352.6,440.89a9.73,9.73,0,0,0-13.36,3.27,23.32,23.32,0,0,1-7.26,7.4,8.84,8.84,0,0,1-9.33.13l-14.55-8.84a9,9,0,0,1-4.16-8.57,22.84,22.84,0,0,1,3.19-9.62,9.72,9.72,0,0,0-16.62-10.1,42.52,42.52,0,0,0-5.94,17.9l0,.2A28.39,28.39,0,0,0,298,459.48l14.56,8.84a28.39,28.39,0,0,0,30-.44,42.88,42.88,0,0,0,13.31-13.63A9.73,9.73,0,0,0,352.6,440.89Z"/><path class="cls-1" d="M127.17,415.1A127.18,127.18,0,1,1,254.35,287.93,127.32,127.32,0,0,1,127.17,415.1Zm0-235.22A108.05,108.05,0,1,0,235.22,287.93,108.17,108.17,0,0,0,127.17,179.88Z"/><path class="cls-1" d="M509.11,411.68A127.18,127.18,0,1,1,636.29,284.51,127.32,127.32,0,0,1,509.11,411.68Zm0-235.23A108.06,108.06,0,1,0,617.17,284.51,108.18,108.18,0,0,0,509.11,176.45Z"/></g></g></svg>