<svg xmlns="http://www.w3.org/2000/svg" viewBox="0 0 596.02 747.94"><defs><style>.cls-1{fill:#fff;}</style></defs><g id="Capa_2" data-name="Capa 2"><g id="Capa_1-2" data-name="Capa 1"><path class="cls-1" d="M508.37,274.64H455.72V154.51C455.72,69.31,385,0,298,0S140.19,69.31,140.19,154.51V274.64H87.65A87.74,87.74,0,0,0,0,362.28v298a87.75,87.75,0,0,0,87.65,87.65H508.37A87.75,87.75,0,0,0,596,660.29v-298A87.74,87.74,0,0,0,508.37,274.64ZM198.62,154.51c0-53,44.56-96.08,99.33-96.08s99.34,43.1,99.34,96.08V274.64H198.62V154.51Zm339,505.78a29.25,29.25,0,0,1-29.21,29.22H87.65a29.26,29.26,0,0,1-29.22-29.22v-298a29.25,29.25,0,0,1,29.22-29.21H508.37a29.24,29.24,0,0,1,29.21,29.21Z"/><path class="cls-1" d="M298,417.8a54,54,0,0,0-29.27,99.48v64.13a29.22,29.22,0,0,0,58.43,0V517.34A54,54,0,0,0,298,417.8Z"/></g></g></svg>