<svg xmlns="http://www.w3.org/2000/svg" viewBox="0 0 818.65 745.1"><defs><style>.cls-1{fill:#fff;}</style></defs><g id="Capa_2" data-name="Capa 2"><g id="Capa_1-2" data-name="Capa 1"><path class="cls-1" d="M48,95.94A16,16,0,1,0,32,80,16,16,0,0,0,48,95.94Z"/><path class="cls-1" d="M246.41,150.48A70.54,70.54,0,1,0,175.87,221,70.62,70.62,0,0,0,246.41,150.48ZM175.87,192.8a42.32,42.32,0,1,1,42.32-42.32A42.37,42.37,0,0,1,175.87,192.8Z"/><path class="cls-1" d="M713.31,150.48A70.54,70.54,0,1,0,642.78,221,70.61,70.61,0,0,0,713.31,150.48ZM642.78,192.8a42.32,42.32,0,1,1,42.32-42.32A42.36,42.36,0,0,1,642.78,192.8Z"/><path class="cls-1" d="M642.77,0c-91.59,0-167,70.38-175.15,159.89H351C342.93,70.38,267.47,0,175.88,0A175.42,175.42,0,0,0,87.72,23.66,16,16,0,1,0,103.8,51.3,143.45,143.45,0,0,1,175.88,32c79.35,0,143.9,64.55,143.9,143.9A143.3,143.3,0,0,1,267.2,287.09a111.87,111.87,0,0,0-182.64,0A144.26,144.26,0,0,1,36.09,141.52,16,16,0,1,0,5,133.94a174.39,174.39,0,0,0-5,41.94C0,274,79.65,351.76,175.88,351.76a177.67,177.67,0,0,0,26.43-2L269.94,462a175.57,175.57,0,0,0-36.5,107.26c0,98.53,80,175.88,175.88,175.88,96,0,175.89-77.52,175.89-175.88A175.57,175.57,0,0,0,548.71,462l67.63-112.19a177.67,177.67,0,0,0,26.43,2c96,0,175.88-77.51,175.88-175.88C818.65,78.9,739.75,0,642.77,0ZM351,191.87H467.61A175.71,175.71,0,0,0,583.9,341.64l-57.89,96a175.75,175.75,0,0,0-233.38,0l-57.88-96A175.67,175.67,0,0,0,351,191.87ZM111.38,304.55a79.91,79.91,0,0,1,129,0,144.07,144.07,0,0,1-129,0ZM344.82,697.89a79.9,79.9,0,0,1,129,0,144.2,144.2,0,0,1-129,0Zm155.82-17.46a111.86,111.86,0,0,0-182.64,0,143.3,143.3,0,0,1-52.58-111.21c0-79.78,64.84-143.91,143.9-143.91,78.84,0,143.91,63.91,143.91,143.91A143.31,143.31,0,0,1,500.64,680.43Zm77.65-375.9a79.91,79.91,0,0,1,129,0,144.07,144.07,0,0,1-129,0Zm155.8-17.44a111.87,111.87,0,0,0-182.64,0,143.29,143.29,0,0,1-52.59-111.21C498.86,96.53,563.42,32,642.77,32s143.9,64.55,143.9,143.9A143.3,143.3,0,0,1,734.09,287.09Z"/><path class="cls-1" d="M485.28,539.83a70.54,70.54,0,1,0-70.53,70.53A70.61,70.61,0,0,0,485.28,539.83Zm-70.53,42.32a42.32,42.32,0,1,1,42.32-42.32A42.37,42.37,0,0,1,414.75,582.15Z"/></g></g></svg>