<svg xmlns="http://www.w3.org/2000/svg" viewBox="0 0 657.87 740.87"><defs><style>.cls-1{fill:#fff;}</style></defs><g id="Capa_2" data-name="Capa 2"><g id="Capa_1-2" data-name="Capa 1"><path class="cls-1" d="M571,409.15A13.45,13.45,0,0,0,575.94,387l-97.6-97.61A99.33,99.33,0,0,0,339.61,150.64L242,53A13.45,13.45,0,0,0,219.83,58l-80.35,221A531.93,531.93,0,0,1,16.52,472a56.4,56.4,0,0,0,0,79.75h0l60.72,60.71a56.37,56.37,0,0,0,79.74,0h0l1.12-1.09L283.67,736.93a13.48,13.48,0,0,0,19,0,99.44,99.44,0,0,0,0-140.47l-55.95-56a529.11,529.11,0,0,1,103.29-51ZM449.14,179.84A72.43,72.43,0,0,1,459,270L359,170A72.52,72.52,0,0,1,449.14,179.84Zm-332,422.22a29.27,29.27,0,0,1-20.84-8.64L35.55,532.7a29.47,29.47,0,0,1,0-41.68h0q15.74-15.74,30.18-32.76l105,105q-17,14.43-32.76,30.17A29.31,29.31,0,0,1,117.11,602.06Zm166.57,13.43a72.46,72.46,0,0,1,8.64,92L177.7,592.88a528.92,528.92,0,0,1,46.34-37Zm-91.89-69.23L82.72,437.18a558.84,558.84,0,0,0,82.05-149.06L237.9,87,542,391.06,340.86,464.19A558.53,558.53,0,0,0,191.79,546.26Z"/><path class="cls-1" d="M544.46,113.37A146,146,0,0,0,386.4,81.12a13.46,13.46,0,0,0,10.07,25A119.32,119.32,0,0,1,551.73,261.36a13.46,13.46,0,1,0,25,10.05A146,146,0,0,0,544.46,113.37Z"/><path class="cls-1" d="M624.66,303.89a13.47,13.47,0,0,0,17.52-7.45h0c44.54-110.54-9-236.26-119.5-280.8a215.79,215.79,0,0,0-161.3,0,13.46,13.46,0,0,0,9.88,25l.18-.08c96.75-39,206.78,7.84,245.77,104.59a188.9,188.9,0,0,1,0,141.19,13.46,13.46,0,0,0,7.45,17.51Z"/></g></g></svg>