<svg xmlns="http://www.w3.org/2000/svg" viewBox="0 0 743.37 743.37"><defs><style>.cls-1{fill:#fff;}</style></defs><g id="Capa_2" data-name="Capa 2"><g id="Capa_1-2" data-name="Capa 1"><path class="cls-1" d="M732.48,258.44a10.89,10.89,0,0,0,10.89-10.89V175.16a40.26,40.26,0,0,0-40.22-40.22H652.42V116.49a40.26,40.26,0,0,0-40.21-40.22H490.58L431.25,16.94A57.48,57.48,0,0,0,390.36,0H40.22A40.27,40.27,0,0,0,0,40.23V214.28a10.89,10.89,0,0,0,21.78,0v-174A18.47,18.47,0,0,1,40.22,21.78H390.36a36.31,36.31,0,0,1,8.55,1v99.56a40.28,40.28,0,0,0,40.23,40.22h99.52a35.47,35.47,0,0,1,1.05,8.54v532a18.46,18.46,0,0,1-18.44,18.44h-481a18.46,18.46,0,0,1-18.44-18.44V265.09a10.89,10.89,0,0,0-21.78,0V703.15a40.26,40.26,0,0,0,40.22,40.22H703.15a40.27,40.27,0,0,0,40.22-40.23V298.36a10.89,10.89,0,1,0-21.78,0V703.14a18.47,18.47,0,0,1-18.44,18.45H647.92a39.93,39.93,0,0,0,4.5-18.45V570.64a10.89,10.89,0,1,0-21.78,0v132.5a18.46,18.46,0,0,1-18.43,18.45H557a40,40,0,0,0,4.49-18.44v-532a58.29,58.29,0,0,0-16.94-40.89L512.36,98.05h99.85a18.46,18.46,0,0,1,18.43,18.44V519.82a10.89,10.89,0,1,0,21.78,0V156.72h50.73a18.46,18.46,0,0,1,18.44,18.44v72.39a10.9,10.9,0,0,0,10.89,10.89ZM420.69,122.35V37.18L524.32,140.8H439.14A18.47,18.47,0,0,1,420.69,122.35Z"/><path class="cls-1" d="M429.34,371.68c0-81.93-66.66-148.6-148.6-148.6s-148.6,66.67-148.6,148.6,66.66,148.6,148.6,148.6S429.34,453.62,429.34,371.68Zm-275.42,0A127,127,0,0,1,280.74,244.86c69.93,0,126.83,56.9,126.83,126.82a126.83,126.83,0,1,1-253.65,0Z"/><path class="cls-1" d="M355.1,365.26a35.24,35.24,0,0,0-49.83-49.83l-38.18,38.18-10.88-10.88a35.24,35.24,0,1,0-49.74,49.92l36.13,35.29a35.28,35.28,0,0,0,49.83,0Zm-97.19,47.19-36.13-35.29a13.46,13.46,0,0,1,19-19l18.58,18.58a10.89,10.89,0,0,0,15.4,0l45.88-45.88a13.46,13.46,0,0,1,19,19L277,412.54a13.5,13.5,0,0,1-19.12-.09Z"/></g></g></svg>